<svg width="420" height="280" viewBox="0 0 420 280" fill="none" xmlns="http://www.w3.org/2000/svg">
<rect width="420" height="280" rx="8" fill="white"/>
<line y1="111.5" x2="420" y2="111.5" stroke="#F0F0F5"/>
<line y1="167.5" x2="420" y2="167.5" stroke="#F0F0F5"/>
<line y1="223.5" x2="420" y2="223.5" stroke="#F0F0F5"/>
<line y1="55.5" x2="420" y2="55.5" stroke="#F0F0F5"/>
<path d="M29.4922 85.3984H26.8203V90H25.3125V78.625H29.0781C30.3594 78.625 31.3438 78.9167 32.0312 79.5C32.724 80.0833 33.0703 80.9323 33.0703 82.0469C33.0703 82.7552 32.8776 83.3724 32.4922 83.8984C32.112 84.4245 31.5807 84.8177 30.8984 85.0781L33.5703 89.9062V90H31.9609L29.4922 85.3984ZM26.8203 84.1719H29.125C29.8698 84.1719 30.4609 83.9792 30.8984 83.5938C31.3411 83.2083 31.5625 82.6927 31.5625 82.0469C31.5625 81.3438 31.3516 80.8047 30.9297 80.4297C30.513 80.0547 29.9089 79.8646 29.1172 79.8594H26.8203V84.1719ZM36.5234 90H35.0781V81.5469H36.5234V90ZM34.9609 79.3047C34.9609 79.0703 35.0312 78.8724 35.1719 78.7109C35.3177 78.5495 35.5312 78.4688 35.8125 78.4688C36.0938 78.4688 36.3073 78.5495 36.4531 78.7109C36.599 78.8724 36.6719 79.0703 36.6719 79.3047C36.6719 79.5391 36.599 79.7344 36.4531 79.8906C36.3073 80.0469 36.0938 80.125 35.8125 80.125C35.5312 80.125 35.3177 80.0469 35.1719 79.8906C35.0312 79.7344 34.9609 79.5391 34.9609 79.3047Z" fill="#A0A0B2"/>
<path d="M38.2656 85.6953C38.2656 84.8568 38.4271 84.1094 38.75 83.4531C39.0729 82.7969 39.5365 82.2891 40.1406 81.9297C40.75 81.5703 41.4557 81.3906 42.2578 81.3906C43.3984 81.3906 44.3281 81.7396 45.0469 82.4375C45.7708 83.1354 46.1745 84.0833 46.2578 85.2812L46.2734 85.8594C46.2734 87.1562 45.9115 88.1979 45.1875 88.9844C44.4635 89.7656 43.4922 90.1562 42.2734 90.1562C41.0547 90.1562 40.0807 89.7656 39.3516 88.9844C38.6276 88.2031 38.2656 87.1406 38.2656 85.7969V85.6953ZM40.5234 85.8594C40.5234 86.6615 40.6745 87.276 40.9766 87.7031C41.2786 88.125 41.7109 88.3359 42.2734 88.3359C42.8203 88.3359 43.2474 88.1276 43.5547 87.7109C43.862 87.2891 44.0156 86.6172 44.0156 85.6953C44.0156 84.9089 43.862 84.2995 43.5547 83.8672C43.2474 83.4349 42.8151 83.2188 42.2578 83.2188C41.7057 83.2188 41.2786 83.4349 40.9766 83.8672C40.6745 84.2943 40.5234 84.9583 40.5234 85.8594ZM51.2969 85.7109C51.2969 84.3932 51.5911 83.3438 52.1797 82.5625C52.7734 81.7812 53.5833 81.3906 54.6094 81.3906C55.4323 81.3906 56.112 81.6979 56.6484 82.3125V78H58.9141V90H56.875L56.7656 89.1016C56.2031 89.8047 55.4792 90.1562 54.5938 90.1562C53.599 90.1562 52.7995 89.7656 52.1953 88.9844C51.5964 88.1979 51.2969 87.1068 51.2969 85.7109ZM53.5547 85.875C53.5547 86.6667 53.6927 87.2734 53.9688 87.6953C54.2448 88.1172 54.6458 88.3281 55.1719 88.3281C55.8698 88.3281 56.362 88.0339 56.6484 87.4453V84.1094C56.3672 83.5208 55.8802 83.2266 55.1875 83.2266C54.099 83.2266 53.5547 84.1094 53.5547 85.875ZM60.3125 85.6953C60.3125 84.8568 60.474 84.1094 60.7969 83.4531C61.1198 82.7969 61.5833 82.2891 62.1875 81.9297C62.7969 81.5703 63.5026 81.3906 64.3047 81.3906C65.4453 81.3906 66.375 81.7396 67.0938 82.4375C67.8177 83.1354 68.2214 84.0833 68.3047 85.2812L68.3203 85.8594C68.3203 87.1562 67.9583 88.1979 67.2344 88.9844C66.5104 89.7656 65.5391 90.1562 64.3203 90.1562C63.1016 90.1562 62.1276 89.7656 61.3984 88.9844C60.6745 88.2031 60.3125 87.1406 60.3125 85.7969V85.6953ZM62.5703 85.8594C62.5703 86.6615 62.7214 87.276 63.0234 87.7031C63.3255 88.125 63.7578 88.3359 64.3203 88.3359C64.8672 88.3359 65.2943 88.1276 65.6016 87.7109C65.9089 87.2891 66.0625 86.6172 66.0625 85.6953C66.0625 84.9089 65.9089 84.2995 65.6016 83.8672C65.2943 83.4349 64.862 83.2188 64.3047 83.2188C63.7526 83.2188 63.3255 83.4349 63.0234 83.8672C62.7214 84.2943 62.5703 84.9583 62.5703 85.8594ZM79.7422 87.0156C79.7422 86.5729 79.5859 86.2344 79.2734 86C78.9609 85.7604 78.3984 85.5104 77.5859 85.25C76.7734 84.9844 76.1302 84.724 75.6562 84.4688C74.3646 83.7708 73.7188 82.8307 73.7188 81.6484C73.7188 81.0339 73.8906 80.487 74.2344 80.0078C74.5833 79.5234 75.0807 79.1458 75.7266 78.875C76.3776 78.6042 77.1068 78.4688 77.9141 78.4688C78.7266 78.4688 79.4505 78.6172 80.0859 78.9141C80.7214 79.2057 81.2135 79.6198 81.5625 80.1562C81.9167 80.6927 82.0938 81.3021 82.0938 81.9844H79.75C79.75 81.4635 79.5859 81.0599 79.2578 80.7734C78.9297 80.4818 78.4688 80.3359 77.875 80.3359C77.3021 80.3359 76.8568 80.4583 76.5391 80.7031C76.2214 80.9427 76.0625 81.2604 76.0625 81.6562C76.0625 82.026 76.2474 82.3359 76.6172 82.5859C76.9922 82.8359 77.5417 83.0703 78.2656 83.2891C79.599 83.6901 80.5703 84.1875 81.1797 84.7812C81.7891 85.375 82.0938 86.1146 82.0938 87C82.0938 87.9844 81.7214 88.7578 80.9766 89.3203C80.2318 89.8776 79.2292 90.1562 77.9688 90.1562C77.0938 90.1562 76.2969 89.9974 75.5781 89.6797C74.8594 89.3568 74.3099 88.9167 73.9297 88.3594C73.5547 87.8021 73.3672 87.1562 73.3672 86.4219H75.7188C75.7188 87.6771 76.4688 88.3047 77.9688 88.3047C78.526 88.3047 78.9609 88.1927 79.2734 87.9688C79.5859 87.7396 79.7422 87.4219 79.7422 87.0156ZM88.6016 89.1406C88.0443 89.8177 87.2734 90.1562 86.2891 90.1562C85.3828 90.1562 84.6901 89.8958 84.2109 89.375C83.737 88.8542 83.4948 88.0911 83.4844 87.0859V81.5469H85.7422V87.0078C85.7422 87.888 86.1432 88.3281 86.9453 88.3281C87.7109 88.3281 88.237 88.0625 88.5234 87.5312V81.5469H90.7891V90H88.6641L88.6016 89.1406ZM94.875 90H92.6094V78H94.875V90Z" fill="#6C6C80"/>
<path d="M29.4922 141.398H26.8203V146H25.3125V134.625H29.0781C30.3594 134.625 31.3438 134.917 32.0312 135.5C32.724 136.083 33.0703 136.932 33.0703 138.047C33.0703 138.755 32.8776 139.372 32.4922 139.898C32.112 140.424 31.5807 140.818 30.8984 141.078L33.5703 145.906V146H31.9609L29.4922 141.398ZM26.8203 140.172H29.125C29.8698 140.172 30.4609 139.979 30.8984 139.594C31.3411 139.208 31.5625 138.693 31.5625 138.047C31.5625 137.344 31.3516 136.805 30.9297 136.43C30.513 136.055 29.9089 135.865 29.1172 135.859H26.8203V140.172ZM36.5234 146H35.0781V137.547H36.5234V146ZM34.9609 135.305C34.9609 135.07 35.0312 134.872 35.1719 134.711C35.3177 134.549 35.5312 134.469 35.8125 134.469C36.0938 134.469 36.3073 134.549 36.4531 134.711C36.599 134.872 36.6719 135.07 36.6719 135.305C36.6719 135.539 36.599 135.734 36.4531 135.891C36.3073 136.047 36.0938 136.125 35.8125 136.125C35.5312 136.125 35.3177 136.047 35.1719 135.891C35.0312 135.734 34.9609 135.539 34.9609 135.305Z" fill="#A0A0B2"/>
<path d="M43.5156 146C43.4115 145.797 43.3359 145.544 43.2891 145.242C42.7422 145.852 42.0312 146.156 41.1562 146.156C40.3281 146.156 39.6406 145.917 39.0938 145.438C38.5521 144.958 38.2812 144.354 38.2812 143.625C38.2812 142.729 38.612 142.042 39.2734 141.562C39.9401 141.083 40.901 140.841 42.1562 140.836H43.1953V140.352C43.1953 139.961 43.0938 139.648 42.8906 139.414C42.6927 139.18 42.3776 139.062 41.9453 139.062C41.5651 139.062 41.2656 139.154 41.0469 139.336C40.8333 139.518 40.7266 139.768 40.7266 140.086H38.4688C38.4688 139.596 38.6198 139.143 38.9219 138.727C39.224 138.31 39.651 137.984 40.2031 137.75C40.7552 137.51 41.375 137.391 42.0625 137.391C43.1042 137.391 43.9297 137.654 44.5391 138.18C45.1536 138.701 45.4609 139.435 45.4609 140.383V144.047C45.4661 144.849 45.5781 145.456 45.7969 145.867V146H43.5156ZM41.6484 144.43C41.9818 144.43 42.2891 144.357 42.5703 144.211C42.8516 144.06 43.0599 143.859 43.1953 143.609V142.156H42.3516C41.2214 142.156 40.6198 142.547 40.5469 143.328L40.5391 143.461C40.5391 143.742 40.638 143.974 40.8359 144.156C41.0339 144.339 41.3047 144.43 41.6484 144.43ZM50.7109 144.336C51.1276 144.336 51.4661 144.221 51.7266 143.992C51.987 143.763 52.1224 143.458 52.1328 143.078H54.25C54.2448 143.651 54.0885 144.177 53.7812 144.656C53.474 145.13 53.0521 145.5 52.5156 145.766C51.9844 146.026 51.3958 146.156 50.75 146.156C49.5417 146.156 48.5885 145.773 47.8906 145.008C47.1927 144.237 46.8438 143.174 46.8438 141.82V141.672C46.8438 140.37 47.1901 139.331 47.8828 138.555C48.5755 137.779 49.526 137.391 50.7344 137.391C51.7917 137.391 52.638 137.693 53.2734 138.297C53.9141 138.896 54.2396 139.695 54.25 140.695H52.1328C52.1224 140.258 51.987 139.904 51.7266 139.633C51.4661 139.357 51.1224 139.219 50.6953 139.219C50.1693 139.219 49.7708 139.411 49.5 139.797C49.2344 140.177 49.1016 140.797 49.1016 141.656V141.891C49.1016 142.76 49.2344 143.385 49.5 143.766C49.7656 144.146 50.1693 144.336 50.7109 144.336ZM57.7422 138.469C58.3411 137.75 59.0938 137.391 60 137.391C61.8333 137.391 62.763 138.456 62.7891 140.586V146H60.5312V140.648C60.5312 140.164 60.4271 139.807 60.2188 139.578C60.0104 139.344 59.6641 139.227 59.1797 139.227C58.5182 139.227 58.0391 139.482 57.7422 139.992V146H55.4844V134H57.7422V138.469ZM64.1406 141.695C64.1406 140.857 64.3021 140.109 64.625 139.453C64.9479 138.797 65.4115 138.289 66.0156 137.93C66.625 137.57 67.3307 137.391 68.1328 137.391C69.2734 137.391 70.2031 137.74 70.9219 138.438C71.6458 139.135 72.0495 140.083 72.1328 141.281L72.1484 141.859C72.1484 143.156 71.7865 144.198 71.0625 144.984C70.3385 145.766 69.3672 146.156 68.1484 146.156C66.9297 146.156 65.9557 145.766 65.2266 144.984C64.5026 144.203 64.1406 143.141 64.1406 141.797V141.695ZM66.3984 141.859C66.3984 142.661 66.5495 143.276 66.8516 143.703C67.1536 144.125 67.5859 144.336 68.1484 144.336C68.6953 144.336 69.1224 144.128 69.4297 143.711C69.737 143.289 69.8906 142.617 69.8906 141.695C69.8906 140.909 69.737 140.299 69.4297 139.867C69.1224 139.435 68.6901 139.219 68.1328 139.219C67.5807 139.219 67.1536 139.435 66.8516 139.867C66.5495 140.294 66.3984 140.958 66.3984 141.859ZM86.9219 146H84.5781L80.0156 138.516V146H77.6719V134.625H80.0156L84.5859 142.125V134.625H86.9219V146ZM92.7109 146.156C91.4714 146.156 90.4609 145.776 89.6797 145.016C88.9036 144.255 88.5156 143.242 88.5156 141.977V141.758C88.5156 140.909 88.6797 140.151 89.0078 139.484C89.3359 138.812 89.7995 138.297 90.3984 137.938C91.0026 137.573 91.6901 137.391 92.4609 137.391C93.6172 137.391 94.526 137.755 95.1875 138.484C95.8542 139.214 96.1875 140.247 96.1875 141.586V142.508H90.8047C90.8776 143.06 91.0964 143.503 91.4609 143.836C91.8307 144.169 92.2969 144.336 92.8594 144.336C93.7292 144.336 94.4089 144.021 94.8984 143.391L96.0078 144.633C95.6693 145.112 95.2109 145.487 94.6328 145.758C94.0547 146.023 93.4141 146.156 92.7109 146.156ZM92.4531 139.219C92.0052 139.219 91.6406 139.37 91.3594 139.672C91.0833 139.974 90.9062 140.406 90.8281 140.969H93.9688V140.789C93.9583 140.289 93.8229 139.904 93.5625 139.633C93.3021 139.357 92.9323 139.219 92.4531 139.219ZM97.1484 141.711C97.1484 140.414 97.4557 139.37 98.0703 138.578C98.6901 137.786 99.5234 137.391 100.57 137.391C101.497 137.391 102.219 137.708 102.734 138.344L102.828 137.547H104.875V145.719C104.875 146.458 104.706 147.102 104.367 147.648C104.034 148.195 103.562 148.612 102.953 148.898C102.344 149.185 101.63 149.328 100.812 149.328C100.193 149.328 99.5885 149.203 99 148.953C98.4115 148.708 97.9661 148.391 97.6641 148L98.6641 146.625C99.2266 147.255 99.9089 147.57 100.711 147.57C101.31 147.57 101.776 147.409 102.109 147.086C102.443 146.768 102.609 146.315 102.609 145.727V145.273C102.089 145.862 101.404 146.156 100.555 146.156C99.5391 146.156 98.7161 145.76 98.0859 144.969C97.4609 144.172 97.1484 143.117 97.1484 141.805V141.711ZM99.4062 141.875C99.4062 142.641 99.5599 143.242 99.8672 143.68C100.174 144.112 100.596 144.328 101.133 144.328C101.82 144.328 102.312 144.07 102.609 143.555V140C102.307 139.484 101.82 139.227 101.148 139.227C100.607 139.227 100.18 139.448 99.8672 139.891C99.5599 140.333 99.4062 140.995 99.4062 141.875ZM111.367 139.664C111.06 139.622 110.789 139.602 110.555 139.602C109.701 139.602 109.141 139.891 108.875 140.469V146H106.617V137.547H108.75L108.812 138.555C109.266 137.779 109.893 137.391 110.695 137.391C110.945 137.391 111.18 137.424 111.398 137.492L111.367 139.664ZM111.828 141.695C111.828 140.857 111.99 140.109 112.312 139.453C112.635 138.797 113.099 138.289 113.703 137.93C114.312 137.57 115.018 137.391 115.82 137.391C116.961 137.391 117.891 137.74 118.609 138.438C119.333 139.135 119.737 140.083 119.82 141.281L119.836 141.859C119.836 143.156 119.474 144.198 118.75 144.984C118.026 145.766 117.055 146.156 115.836 146.156C114.617 146.156 113.643 145.766 112.914 144.984C112.19 144.203 111.828 143.141 111.828 141.797V141.695ZM114.086 141.859C114.086 142.661 114.237 143.276 114.539 143.703C114.841 144.125 115.273 144.336 115.836 144.336C116.383 144.336 116.81 144.128 117.117 143.711C117.424 143.289 117.578 142.617 117.578 141.695C117.578 140.909 117.424 140.299 117.117 139.867C116.81 139.435 116.378 139.219 115.82 139.219C115.268 139.219 114.841 139.435 114.539 139.867C114.237 140.294 114.086 140.958 114.086 141.859Z" fill="#6C6C80"/>
<path d="M29.4922 197.398H26.8203V202H25.3125V190.625H29.0781C30.3594 190.625 31.3438 190.917 32.0312 191.5C32.724 192.083 33.0703 192.932 33.0703 194.047C33.0703 194.755 32.8776 195.372 32.4922 195.898C32.112 196.424 31.5807 196.818 30.8984 197.078L33.5703 201.906V202H31.9609L29.4922 197.398ZM26.8203 196.172H29.125C29.8698 196.172 30.4609 195.979 30.8984 195.594C31.3411 195.208 31.5625 194.693 31.5625 194.047C31.5625 193.344 31.3516 192.805 30.9297 192.43C30.513 192.055 29.9089 191.865 29.1172 191.859H26.8203V196.172ZM36.5234 202H35.0781V193.547H36.5234V202ZM34.9609 191.305C34.9609 191.07 35.0312 190.872 35.1719 190.711C35.3177 190.549 35.5312 190.469 35.8125 190.469C36.0938 190.469 36.3073 190.549 36.4531 190.711C36.599 190.872 36.6719 191.07 36.6719 191.305C36.6719 191.539 36.599 191.734 36.4531 191.891C36.3073 192.047 36.0938 192.125 35.8125 192.125C35.5312 192.125 35.3177 192.047 35.1719 191.891C35.0312 191.734 34.9609 191.539 34.9609 191.305Z" fill="#A0A0B2"/>
<path d="M46.2344 197.852C46.2344 199.206 45.9453 200.263 45.3672 201.023C44.7891 201.779 43.9818 202.156 42.9453 202.156C42.0286 202.156 41.2969 201.805 40.75 201.102L40.6484 202H38.6172V190H40.875V194.305C41.3958 193.695 42.0807 193.391 42.9297 193.391C43.9609 193.391 44.7682 193.771 45.3516 194.531C45.9401 195.286 46.2344 196.352 46.2344 197.727V197.852ZM43.9766 197.688C43.9766 196.833 43.8411 196.211 43.5703 195.82C43.2995 195.424 42.8958 195.227 42.3594 195.227C41.6406 195.227 41.1458 195.521 40.875 196.109V199.445C41.151 200.039 41.651 200.336 42.375 200.336C43.1042 200.336 43.5833 199.977 43.8125 199.258C43.9219 198.914 43.9766 198.391 43.9766 197.688ZM50.0156 202H47.75V193.547H50.0156V202ZM47.6172 191.359C47.6172 191.021 47.7292 190.742 47.9531 190.523C48.1823 190.305 48.4922 190.195 48.8828 190.195C49.2682 190.195 49.5755 190.305 49.8047 190.523C50.0339 190.742 50.1484 191.021 50.1484 191.359C50.1484 191.703 50.0312 191.984 49.7969 192.203C49.5677 192.422 49.263 192.531 48.8828 192.531C48.5026 192.531 48.1953 192.422 47.9609 192.203C47.7318 191.984 47.6172 191.703 47.6172 191.359ZM54 193.547L54.0703 194.492C54.6693 193.758 55.4792 193.391 56.5 193.391C57.5885 193.391 58.3359 193.82 58.7422 194.68C59.3359 193.82 60.1823 193.391 61.2812 193.391C62.1979 193.391 62.8802 193.659 63.3281 194.195C63.776 194.727 64 195.529 64 196.602V202H61.7344V196.609C61.7344 196.13 61.6406 195.781 61.4531 195.562C61.2656 195.339 60.9349 195.227 60.4609 195.227C59.7839 195.227 59.3151 195.549 59.0547 196.195L59.0625 202H56.8047V196.617C56.8047 196.128 56.7083 195.773 56.5156 195.555C56.3229 195.336 55.9948 195.227 55.5312 195.227C54.8906 195.227 54.4271 195.492 54.1406 196.023V202H51.8828V193.547H54ZM73.3594 197.852C73.3594 199.206 73.0703 200.263 72.4922 201.023C71.9141 201.779 71.1068 202.156 70.0703 202.156C69.1536 202.156 68.4219 201.805 67.875 201.102L67.7734 202H65.7422V190H68V194.305C68.5208 193.695 69.2057 193.391 70.0547 193.391C71.0859 193.391 71.8932 193.771 72.4766 194.531C73.0651 195.286 73.3594 196.352 73.3594 197.727V197.852ZM71.1016 197.688C71.1016 196.833 70.9661 196.211 70.6953 195.82C70.4245 195.424 70.0208 195.227 69.4844 195.227C68.7656 195.227 68.2708 195.521 68 196.109V199.445C68.276 200.039 68.776 200.336 69.5 200.336C70.2292 200.336 70.7083 199.977 70.9375 199.258C71.0469 198.914 71.1016 198.391 71.1016 197.688ZM74.4062 197.695C74.4062 196.857 74.5677 196.109 74.8906 195.453C75.2135 194.797 75.6771 194.289 76.2812 193.93C76.8906 193.57 77.5964 193.391 78.3984 193.391C79.5391 193.391 80.4688 193.74 81.1875 194.438C81.9115 195.135 82.3151 196.083 82.3984 197.281L82.4141 197.859C82.4141 199.156 82.0521 200.198 81.3281 200.984C80.6042 201.766 79.6328 202.156 78.4141 202.156C77.1953 202.156 76.2214 201.766 75.4922 200.984C74.7682 200.203 74.4062 199.141 74.4062 197.797V197.695ZM76.6641 197.859C76.6641 198.661 76.8151 199.276 77.1172 199.703C77.4193 200.125 77.8516 200.336 78.4141 200.336C78.9609 200.336 79.388 200.128 79.6953 199.711C80.0026 199.289 80.1562 198.617 80.1562 197.695C80.1562 196.909 80.0026 196.299 79.6953 195.867C79.388 195.435 78.9557 195.219 78.3984 195.219C77.8464 195.219 77.4193 195.435 77.1172 195.867C76.8151 196.294 76.6641 196.958 76.6641 197.859ZM87.3203 200.336C87.737 200.336 88.0755 200.221 88.3359 199.992C88.5964 199.763 88.7318 199.458 88.7422 199.078H90.8594C90.8542 199.651 90.6979 200.177 90.3906 200.656C90.0833 201.13 89.6615 201.5 89.125 201.766C88.5938 202.026 88.0052 202.156 87.3594 202.156C86.151 202.156 85.1979 201.773 84.5 201.008C83.8021 200.237 83.4531 199.174 83.4531 197.82V197.672C83.4531 196.37 83.7995 195.331 84.4922 194.555C85.1849 193.779 86.1354 193.391 87.3438 193.391C88.401 193.391 89.2474 193.693 89.8828 194.297C90.5234 194.896 90.849 195.695 90.8594 196.695H88.7422C88.7318 196.258 88.5964 195.904 88.3359 195.633C88.0755 195.357 87.7318 195.219 87.3047 195.219C86.7786 195.219 86.3802 195.411 86.1094 195.797C85.8438 196.177 85.7109 196.797 85.7109 197.656V197.891C85.7109 198.76 85.8438 199.385 86.1094 199.766C86.375 200.146 86.7786 200.336 87.3203 200.336ZM97.0469 202C96.9427 201.797 96.8672 201.544 96.8203 201.242C96.2734 201.852 95.5625 202.156 94.6875 202.156C93.8594 202.156 93.1719 201.917 92.625 201.438C92.0833 200.958 91.8125 200.354 91.8125 199.625C91.8125 198.729 92.1432 198.042 92.8047 197.562C93.4714 197.083 94.4323 196.841 95.6875 196.836H96.7266V196.352C96.7266 195.961 96.625 195.648 96.4219 195.414C96.224 195.18 95.9089 195.062 95.4766 195.062C95.0964 195.062 94.7969 195.154 94.5781 195.336C94.3646 195.518 94.2578 195.768 94.2578 196.086H92C92 195.596 92.151 195.143 92.4531 194.727C92.7552 194.31 93.1823 193.984 93.7344 193.75C94.2865 193.51 94.9062 193.391 95.5938 193.391C96.6354 193.391 97.4609 193.654 98.0703 194.18C98.6849 194.701 98.9922 195.435 98.9922 196.383V200.047C98.9974 200.849 99.1094 201.456 99.3281 201.867V202H97.0469ZM95.1797 200.43C95.513 200.43 95.8203 200.357 96.1016 200.211C96.3828 200.06 96.5911 199.859 96.7266 199.609V198.156H95.8828C94.7526 198.156 94.151 198.547 94.0781 199.328L94.0703 199.461C94.0703 199.742 94.1693 199.974 94.3672 200.156C94.5651 200.339 94.8359 200.43 95.1797 200.43ZM104.359 197.711C104.359 196.393 104.654 195.344 105.242 194.562C105.836 193.781 106.646 193.391 107.672 193.391C108.495 193.391 109.174 193.698 109.711 194.312V190H111.977V202H109.938L109.828 201.102C109.266 201.805 108.542 202.156 107.656 202.156C106.661 202.156 105.862 201.766 105.258 200.984C104.659 200.198 104.359 199.107 104.359 197.711ZM106.617 197.875C106.617 198.667 106.755 199.273 107.031 199.695C107.307 200.117 107.708 200.328 108.234 200.328C108.932 200.328 109.424 200.034 109.711 199.445V196.109C109.43 195.521 108.943 195.227 108.25 195.227C107.161 195.227 106.617 196.109 106.617 197.875ZM118.625 202C118.521 201.797 118.445 201.544 118.398 201.242C117.852 201.852 117.141 202.156 116.266 202.156C115.438 202.156 114.75 201.917 114.203 201.438C113.661 200.958 113.391 200.354 113.391 199.625C113.391 198.729 113.721 198.042 114.383 197.562C115.049 197.083 116.01 196.841 117.266 196.836H118.305V196.352C118.305 195.961 118.203 195.648 118 195.414C117.802 195.18 117.487 195.062 117.055 195.062C116.674 195.062 116.375 195.154 116.156 195.336C115.943 195.518 115.836 195.768 115.836 196.086H113.578C113.578 195.596 113.729 195.143 114.031 194.727C114.333 194.31 114.76 193.984 115.312 193.75C115.865 193.51 116.484 193.391 117.172 193.391C118.214 193.391 119.039 193.654 119.648 194.18C120.263 194.701 120.57 195.435 120.57 196.383V200.047C120.576 200.849 120.688 201.456 120.906 201.867V202H118.625ZM116.758 200.43C117.091 200.43 117.398 200.357 117.68 200.211C117.961 200.06 118.169 199.859 118.305 199.609V198.156H117.461C116.331 198.156 115.729 198.547 115.656 199.328L115.648 199.461C115.648 199.742 115.747 199.974 115.945 200.156C116.143 200.339 116.414 200.43 116.758 200.43ZM128.781 197.992V202H126.438V190.625H130.875C131.729 190.625 132.479 190.781 133.125 191.094C133.776 191.406 134.276 191.852 134.625 192.43C134.974 193.003 135.148 193.656 135.148 194.391C135.148 195.505 134.766 196.385 134 197.031C133.24 197.672 132.185 197.992 130.836 197.992H128.781ZM128.781 196.094H130.875C131.495 196.094 131.966 195.948 132.289 195.656C132.617 195.365 132.781 194.948 132.781 194.406C132.781 193.849 132.617 193.398 132.289 193.055C131.961 192.711 131.508 192.534 130.93 192.523H128.781V196.094ZM141.422 202C141.318 201.797 141.242 201.544 141.195 201.242C140.648 201.852 139.938 202.156 139.062 202.156C138.234 202.156 137.547 201.917 137 201.438C136.458 200.958 136.188 200.354 136.188 199.625C136.188 198.729 136.518 198.042 137.18 197.562C137.846 197.083 138.807 196.841 140.062 196.836H141.102V196.352C141.102 195.961 141 195.648 140.797 195.414C140.599 195.18 140.284 195.062 139.852 195.062C139.471 195.062 139.172 195.154 138.953 195.336C138.74 195.518 138.633 195.768 138.633 196.086H136.375C136.375 195.596 136.526 195.143 136.828 194.727C137.13 194.31 137.557 193.984 138.109 193.75C138.661 193.51 139.281 193.391 139.969 193.391C141.01 193.391 141.836 193.654 142.445 194.18C143.06 194.701 143.367 195.435 143.367 196.383V200.047C143.372 200.849 143.484 201.456 143.703 201.867V202H141.422ZM139.555 200.43C139.888 200.43 140.195 200.357 140.477 200.211C140.758 200.06 140.966 199.859 141.102 199.609V198.156H140.258C139.128 198.156 138.526 198.547 138.453 199.328L138.445 199.461C138.445 199.742 138.544 199.974 138.742 200.156C138.94 200.339 139.211 200.43 139.555 200.43ZM149.852 195.664C149.544 195.622 149.273 195.602 149.039 195.602C148.185 195.602 147.625 195.891 147.359 196.469V202H145.102V193.547H147.234L147.297 194.555C147.75 193.779 148.378 193.391 149.18 193.391C149.43 193.391 149.664 193.424 149.883 193.492L149.852 195.664ZM155.609 202C155.505 201.797 155.43 201.544 155.383 201.242C154.836 201.852 154.125 202.156 153.25 202.156C152.422 202.156 151.734 201.917 151.188 201.438C150.646 200.958 150.375 200.354 150.375 199.625C150.375 198.729 150.706 198.042 151.367 197.562C152.034 197.083 152.995 196.841 154.25 196.836H155.289V196.352C155.289 195.961 155.188 195.648 154.984 195.414C154.786 195.18 154.471 195.062 154.039 195.062C153.659 195.062 153.359 195.154 153.141 195.336C152.927 195.518 152.82 195.768 152.82 196.086H150.562C150.562 195.596 150.714 195.143 151.016 194.727C151.318 194.31 151.745 193.984 152.297 193.75C152.849 193.51 153.469 193.391 154.156 193.391C155.198 193.391 156.023 193.654 156.633 194.18C157.247 194.701 157.555 195.435 157.555 196.383V200.047C157.56 200.849 157.672 201.456 157.891 201.867V202H155.609ZM153.742 200.43C154.076 200.43 154.383 200.357 154.664 200.211C154.945 200.06 155.154 199.859 155.289 199.609V198.156H154.445C153.315 198.156 152.714 198.547 152.641 199.328L152.633 199.461C152.633 199.742 152.732 199.974 152.93 200.156C153.128 200.339 153.398 200.43 153.742 200.43ZM159.906 202V195.203H158.648V193.547H159.906V192.828C159.906 191.88 160.177 191.146 160.719 190.625C161.266 190.099 162.029 189.836 163.008 189.836C163.32 189.836 163.703 189.888 164.156 189.992L164.133 191.742C163.945 191.695 163.716 191.672 163.445 191.672C162.596 191.672 162.172 192.07 162.172 192.867V193.547H163.852V195.203H162.172V202H159.906ZM170.086 201.141C169.529 201.818 168.758 202.156 167.773 202.156C166.867 202.156 166.174 201.896 165.695 201.375C165.221 200.854 164.979 200.091 164.969 199.086V193.547H167.227V199.008C167.227 199.888 167.628 200.328 168.43 200.328C169.195 200.328 169.721 200.062 170.008 199.531V193.547H172.273V202H170.148L170.086 201.141ZM178.555 199.664C178.555 199.388 178.417 199.172 178.141 199.016C177.87 198.854 177.432 198.711 176.828 198.586C174.818 198.164 173.812 197.31 173.812 196.023C173.812 195.273 174.122 194.648 174.742 194.148C175.367 193.643 176.182 193.391 177.188 193.391C178.26 193.391 179.117 193.643 179.758 194.148C180.404 194.654 180.727 195.31 180.727 196.117H178.469C178.469 195.794 178.365 195.529 178.156 195.32C177.948 195.107 177.622 195 177.18 195C176.799 195 176.505 195.086 176.297 195.258C176.089 195.43 175.984 195.648 175.984 195.914C175.984 196.164 176.102 196.367 176.336 196.523C176.576 196.674 176.977 196.807 177.539 196.922C178.102 197.031 178.576 197.156 178.961 197.297C180.154 197.734 180.75 198.492 180.75 199.57C180.75 200.341 180.419 200.966 179.758 201.445C179.096 201.919 178.242 202.156 177.195 202.156C176.487 202.156 175.857 202.031 175.305 201.781C174.758 201.526 174.328 201.18 174.016 200.742C173.703 200.299 173.547 199.823 173.547 199.312H175.688C175.708 199.714 175.857 200.021 176.133 200.234C176.409 200.448 176.779 200.555 177.242 200.555C177.674 200.555 178 200.474 178.219 200.312C178.443 200.146 178.555 199.93 178.555 199.664ZM186.102 202.156C184.862 202.156 183.852 201.776 183.07 201.016C182.294 200.255 181.906 199.242 181.906 197.977V197.758C181.906 196.909 182.07 196.151 182.398 195.484C182.727 194.812 183.19 194.297 183.789 193.938C184.393 193.573 185.081 193.391 185.852 193.391C187.008 193.391 187.917 193.755 188.578 194.484C189.245 195.214 189.578 196.247 189.578 197.586V198.508H184.195C184.268 199.06 184.487 199.503 184.852 199.836C185.221 200.169 185.688 200.336 186.25 200.336C187.12 200.336 187.799 200.021 188.289 199.391L189.398 200.633C189.06 201.112 188.602 201.487 188.023 201.758C187.445 202.023 186.805 202.156 186.102 202.156ZM185.844 195.219C185.396 195.219 185.031 195.37 184.75 195.672C184.474 195.974 184.297 196.406 184.219 196.969H187.359V196.789C187.349 196.289 187.214 195.904 186.953 195.633C186.693 195.357 186.323 195.219 185.844 195.219ZM193.57 191.469V193.547H195.016V195.203H193.57V199.422C193.57 199.734 193.63 199.958 193.75 200.094C193.87 200.229 194.099 200.297 194.438 200.297C194.688 200.297 194.909 200.279 195.102 200.242V201.953C194.659 202.089 194.203 202.156 193.734 202.156C192.151 202.156 191.344 201.357 191.312 199.758V195.203H190.078V193.547H191.312V191.469H193.57ZM201.172 202C201.068 201.797 200.992 201.544 200.945 201.242C200.398 201.852 199.688 202.156 198.812 202.156C197.984 202.156 197.297 201.917 196.75 201.438C196.208 200.958 195.938 200.354 195.938 199.625C195.938 198.729 196.268 198.042 196.93 197.562C197.596 197.083 198.557 196.841 199.812 196.836H200.852V196.352C200.852 195.961 200.75 195.648 200.547 195.414C200.349 195.18 200.034 195.062 199.602 195.062C199.221 195.062 198.922 195.154 198.703 195.336C198.49 195.518 198.383 195.768 198.383 196.086H196.125C196.125 195.596 196.276 195.143 196.578 194.727C196.88 194.31 197.307 193.984 197.859 193.75C198.411 193.51 199.031 193.391 199.719 193.391C200.76 193.391 201.586 193.654 202.195 194.18C202.81 194.701 203.117 195.435 203.117 196.383V200.047C203.122 200.849 203.234 201.456 203.453 201.867V202H201.172ZM199.305 200.43C199.638 200.43 199.945 200.357 200.227 200.211C200.508 200.06 200.716 199.859 200.852 199.609V198.156H200.008C198.878 198.156 198.276 198.547 198.203 199.328L198.195 199.461C198.195 199.742 198.294 199.974 198.492 200.156C198.69 200.339 198.961 200.43 199.305 200.43Z" fill="#6C6C80"/>
<path d="M29.4922 252.398H26.8203V257H25.3125V245.625H29.0781C30.3594 245.625 31.3438 245.917 32.0312 246.5C32.724 247.083 33.0703 247.932 33.0703 249.047C33.0703 249.755 32.8776 250.372 32.4922 250.898C32.112 251.424 31.5807 251.818 30.8984 252.078L33.5703 256.906V257H31.9609L29.4922 252.398ZM26.8203 251.172H29.125C29.8698 251.172 30.4609 250.979 30.8984 250.594C31.3411 250.208 31.5625 249.693 31.5625 249.047C31.5625 248.344 31.3516 247.805 30.9297 247.43C30.513 247.055 29.9089 246.865 29.1172 246.859H26.8203V251.172ZM36.5234 257H35.0781V248.547H36.5234V257ZM34.9609 246.305C34.9609 246.07 35.0312 245.872 35.1719 245.711C35.3177 245.549 35.5312 245.469 35.8125 245.469C36.0938 245.469 36.3073 245.549 36.4531 245.711C36.599 245.872 36.6719 246.07 36.6719 246.305C36.6719 246.539 36.599 246.734 36.4531 246.891C36.3073 247.047 36.0938 247.125 35.8125 247.125C35.5312 247.125 35.3177 247.047 35.1719 246.891C35.0312 246.734 34.9609 246.539 34.9609 246.305Z" fill="#A0A0B2"/>
<path d="M46.2344 252.852C46.2344 254.206 45.9453 255.263 45.3672 256.023C44.7891 256.779 43.9818 257.156 42.9453 257.156C42.0286 257.156 41.2969 256.805 40.75 256.102L40.6484 257H38.6172V245H40.875V249.305C41.3958 248.695 42.0807 248.391 42.9297 248.391C43.9609 248.391 44.7682 248.771 45.3516 249.531C45.9401 250.286 46.2344 251.352 46.2344 252.727V252.852ZM43.9766 252.688C43.9766 251.833 43.8411 251.211 43.5703 250.82C43.2995 250.424 42.8958 250.227 42.3594 250.227C41.6406 250.227 41.1458 250.521 40.875 251.109V254.445C41.151 255.039 41.651 255.336 42.375 255.336C43.1042 255.336 43.5833 254.977 43.8125 254.258C43.9219 253.914 43.9766 253.391 43.9766 252.688ZM51.5234 257.156C50.2839 257.156 49.2734 256.776 48.4922 256.016C47.7161 255.255 47.3281 254.242 47.3281 252.977V252.758C47.3281 251.909 47.4922 251.151 47.8203 250.484C48.1484 249.812 48.612 249.297 49.2109 248.938C49.8151 248.573 50.5026 248.391 51.2734 248.391C52.4297 248.391 53.3385 248.755 54 249.484C54.6667 250.214 55 251.247 55 252.586V253.508H49.6172C49.6901 254.06 49.9089 254.503 50.2734 254.836C50.6432 255.169 51.1094 255.336 51.6719 255.336C52.5417 255.336 53.2214 255.021 53.7109 254.391L54.8203 255.633C54.4818 256.112 54.0234 256.487 53.4453 256.758C52.8672 257.023 52.2266 257.156 51.5234 257.156ZM51.2656 250.219C50.8177 250.219 50.4531 250.37 50.1719 250.672C49.8958 250.974 49.7188 251.406 49.6406 251.969H52.7812V251.789C52.7708 251.289 52.6354 250.904 52.375 250.633C52.1146 250.357 51.7448 250.219 51.2656 250.219ZM58.6719 257H56.4062V248.547H58.6719V257ZM56.2734 246.359C56.2734 246.021 56.3854 245.742 56.6094 245.523C56.8385 245.305 57.1484 245.195 57.5391 245.195C57.9245 245.195 58.2318 245.305 58.4609 245.523C58.6901 245.742 58.8047 246.021 58.8047 246.359C58.8047 246.703 58.6875 246.984 58.4531 247.203C58.224 247.422 57.9193 247.531 57.5391 247.531C57.1589 247.531 56.8516 247.422 56.6172 247.203C56.388 246.984 56.2734 246.703 56.2734 246.359ZM65.2891 250.664C64.9818 250.622 64.7109 250.602 64.4766 250.602C63.6224 250.602 63.0625 250.891 62.7969 251.469V257H60.5391V248.547H62.6719L62.7344 249.555C63.1875 248.779 63.8151 248.391 64.6172 248.391C64.8672 248.391 65.1016 248.424 65.3203 248.492L65.2891 250.664ZM71.0469 257C70.9427 256.797 70.8672 256.544 70.8203 256.242C70.2734 256.852 69.5625 257.156 68.6875 257.156C67.8594 257.156 67.1719 256.917 66.625 256.438C66.0833 255.958 65.8125 255.354 65.8125 254.625C65.8125 253.729 66.1432 253.042 66.8047 252.562C67.4714 252.083 68.4323 251.841 69.6875 251.836H70.7266V251.352C70.7266 250.961 70.625 250.648 70.4219 250.414C70.224 250.18 69.9089 250.062 69.4766 250.062C69.0964 250.062 68.7969 250.154 68.5781 250.336C68.3646 250.518 68.2578 250.768 68.2578 251.086H66C66 250.596 66.151 250.143 66.4531 249.727C66.7552 249.31 67.1823 248.984 67.7344 248.75C68.2865 248.51 68.9062 248.391 69.5938 248.391C70.6354 248.391 71.4609 248.654 72.0703 249.18C72.6849 249.701 72.9922 250.435 72.9922 251.383V255.047C72.9974 255.849 73.1094 256.456 73.3281 256.867V257H71.0469ZM69.1797 255.43C69.513 255.43 69.8203 255.357 70.1016 255.211C70.3828 255.06 70.5911 254.859 70.7266 254.609V253.156H69.8828C68.7526 253.156 68.151 253.547 68.0781 254.328L68.0703 254.461C68.0703 254.742 68.1693 254.974 68.3672 255.156C68.5651 255.339 68.8359 255.43 69.1797 255.43ZM72.5234 245.102C72.5234 245.69 72.3516 246.185 72.0078 246.586C71.6641 246.982 71.2448 247.18 70.75 247.18C70.5521 247.18 70.375 247.159 70.2188 247.117C70.0677 247.07 69.8568 246.974 69.5859 246.828C69.3151 246.682 69.1198 246.594 69 246.562C68.8802 246.526 68.75 246.508 68.6094 246.508C68.4271 246.508 68.2708 246.573 68.1406 246.703C68.0156 246.833 67.9531 247.018 67.9531 247.258L66.6406 247.18C66.6406 246.602 66.8099 246.109 67.1484 245.703C67.4922 245.297 67.9115 245.094 68.4062 245.094C68.5625 245.094 68.7083 245.115 68.8438 245.156C68.9844 245.193 69.2109 245.286 69.5234 245.438C69.8359 245.589 70.0521 245.68 70.1719 245.711C70.2917 245.742 70.4167 245.758 70.5469 245.758C70.7292 245.758 70.8854 245.695 71.0156 245.57C71.151 245.44 71.2188 245.255 71.2188 245.016L72.5234 245.102ZM74.375 252.695C74.375 251.857 74.5365 251.109 74.8594 250.453C75.1823 249.797 75.6458 249.289 76.25 248.93C76.8594 248.57 77.5651 248.391 78.3672 248.391C79.5078 248.391 80.4375 248.74 81.1562 249.438C81.8802 250.135 82.2839 251.083 82.3672 252.281L82.3828 252.859C82.3828 254.156 82.0208 255.198 81.2969 255.984C80.5729 256.766 79.6016 257.156 78.3828 257.156C77.1641 257.156 76.1901 256.766 75.4609 255.984C74.737 255.203 74.375 254.141 74.375 252.797V252.695ZM76.6328 252.859C76.6328 253.661 76.7839 254.276 77.0859 254.703C77.388 255.125 77.8203 255.336 78.3828 255.336C78.9297 255.336 79.3568 255.128 79.6641 254.711C79.9714 254.289 80.125 253.617 80.125 252.695C80.125 251.909 79.9714 251.299 79.6641 250.867C79.3568 250.435 78.9245 250.219 78.3672 250.219C77.8151 250.219 77.388 250.435 77.0859 250.867C76.7839 251.294 76.6328 251.958 76.6328 252.859ZM97.1641 257H94.8203V252.125H90.25V257H87.9062V245.625H90.25V250.234H94.8203V245.625H97.1641V257ZM102.961 257.156C101.721 257.156 100.711 256.776 99.9297 256.016C99.1536 255.255 98.7656 254.242 98.7656 252.977V252.758C98.7656 251.909 98.9297 251.151 99.2578 250.484C99.5859 249.812 100.049 249.297 100.648 248.938C101.253 248.573 101.94 248.391 102.711 248.391C103.867 248.391 104.776 248.755 105.438 249.484C106.104 250.214 106.438 251.247 106.438 252.586V253.508H101.055C101.128 254.06 101.346 254.503 101.711 254.836C102.081 255.169 102.547 255.336 103.109 255.336C103.979 255.336 104.659 255.021 105.148 254.391L106.258 255.633C105.919 256.112 105.461 256.487 104.883 256.758C104.305 257.023 103.664 257.156 102.961 257.156ZM102.703 250.219C102.255 250.219 101.891 250.37 101.609 250.672C101.333 250.974 101.156 251.406 101.078 251.969H104.219V251.789C104.208 251.289 104.073 250.904 103.812 250.633C103.552 250.357 103.182 250.219 102.703 250.219ZM112.477 250.664C112.169 250.622 111.898 250.602 111.664 250.602C110.81 250.602 110.25 250.891 109.984 251.469V257H107.727V248.547H109.859L109.922 249.555C110.375 248.779 111.003 248.391 111.805 248.391C112.055 248.391 112.289 248.424 112.508 248.492L112.477 250.664ZM115.648 248.547L115.719 249.523C116.323 248.768 117.133 248.391 118.148 248.391C119.044 248.391 119.711 248.654 120.148 249.18C120.586 249.706 120.81 250.492 120.82 251.539V257H118.562V251.594C118.562 251.115 118.458 250.768 118.25 250.555C118.042 250.336 117.695 250.227 117.211 250.227C116.576 250.227 116.099 250.497 115.781 251.039V257H113.523V248.547H115.648ZM126.43 257.156C125.19 257.156 124.18 256.776 123.398 256.016C122.622 255.255 122.234 254.242 122.234 252.977V252.758C122.234 251.909 122.398 251.151 122.727 250.484C123.055 249.812 123.518 249.297 124.117 248.938C124.721 248.573 125.409 248.391 126.18 248.391C127.336 248.391 128.245 248.755 128.906 249.484C129.573 250.214 129.906 251.247 129.906 252.586V253.508H124.523C124.596 254.06 124.815 254.503 125.18 254.836C125.549 255.169 126.016 255.336 126.578 255.336C127.448 255.336 128.128 255.021 128.617 254.391L129.727 255.633C129.388 256.112 128.93 256.487 128.352 256.758C127.773 257.023 127.133 257.156 126.43 257.156ZM126.172 250.219C125.724 250.219 125.359 250.37 125.078 250.672C124.802 250.974 124.625 251.406 124.547 251.969H127.688V251.789C127.677 251.289 127.542 250.904 127.281 250.633C127.021 250.357 126.651 250.219 126.172 250.219ZM135.773 254.664C135.773 254.388 135.635 254.172 135.359 254.016C135.089 253.854 134.651 253.711 134.047 253.586C132.036 253.164 131.031 252.31 131.031 251.023C131.031 250.273 131.341 249.648 131.961 249.148C132.586 248.643 133.401 248.391 134.406 248.391C135.479 248.391 136.336 248.643 136.977 249.148C137.622 249.654 137.945 250.31 137.945 251.117H135.688C135.688 250.794 135.583 250.529 135.375 250.32C135.167 250.107 134.841 250 134.398 250C134.018 250 133.724 250.086 133.516 250.258C133.307 250.43 133.203 250.648 133.203 250.914C133.203 251.164 133.32 251.367 133.555 251.523C133.794 251.674 134.195 251.807 134.758 251.922C135.32 252.031 135.794 252.156 136.18 252.297C137.372 252.734 137.969 253.492 137.969 254.57C137.969 255.341 137.638 255.966 136.977 256.445C136.315 256.919 135.461 257.156 134.414 257.156C133.706 257.156 133.076 257.031 132.523 256.781C131.977 256.526 131.547 256.18 131.234 255.742C130.922 255.299 130.766 254.823 130.766 254.312H132.906C132.927 254.714 133.076 255.021 133.352 255.234C133.628 255.448 133.997 255.555 134.461 255.555C134.893 255.555 135.219 255.474 135.438 255.312C135.661 255.146 135.773 254.93 135.773 254.664ZM142.133 246.469V248.547H143.578V250.203H142.133V254.422C142.133 254.734 142.193 254.958 142.312 255.094C142.432 255.229 142.661 255.297 143 255.297C143.25 255.297 143.471 255.279 143.664 255.242V256.953C143.221 257.089 142.766 257.156 142.297 257.156C140.714 257.156 139.906 256.357 139.875 254.758V250.203H138.641V248.547H139.875V246.469H142.133ZM144.25 252.695C144.25 251.857 144.411 251.109 144.734 250.453C145.057 249.797 145.521 249.289 146.125 248.93C146.734 248.57 147.44 248.391 148.242 248.391C149.383 248.391 150.312 248.74 151.031 249.438C151.755 250.135 152.159 251.083 152.242 252.281L152.258 252.859C152.258 254.156 151.896 255.198 151.172 255.984C150.448 256.766 149.477 257.156 148.258 257.156C147.039 257.156 146.065 256.766 145.336 255.984C144.612 255.203 144.25 254.141 144.25 252.797V252.695ZM146.508 252.859C146.508 253.661 146.659 254.276 146.961 254.703C147.263 255.125 147.695 255.336 148.258 255.336C148.805 255.336 149.232 255.128 149.539 254.711C149.846 254.289 150 253.617 150 252.695C150 251.909 149.846 251.299 149.539 250.867C149.232 250.435 148.799 250.219 148.242 250.219C147.69 250.219 147.263 250.435 146.961 250.867C146.659 251.294 146.508 251.958 146.508 252.859Z" fill="#6C6C80"/>
<path d="M29.4922 29.3984H26.8203V34H25.3125V22.625H29.0781C30.3594 22.625 31.3438 22.9167 32.0312 23.5C32.724 24.0833 33.0703 24.9323 33.0703 26.0469C33.0703 26.7552 32.8776 27.3724 32.4922 27.8984C32.112 28.4245 31.5807 28.8177 30.8984 29.0781L33.5703 33.9062V34H31.9609L29.4922 29.3984ZM26.8203 28.1719H29.125C29.8698 28.1719 30.4609 27.9792 30.8984 27.5938C31.3411 27.2083 31.5625 26.6927 31.5625 26.0469C31.5625 25.3438 31.3516 24.8047 30.9297 24.4297C30.513 24.0547 29.9089 23.8646 29.1172 23.8594H26.8203V28.1719ZM36.5234 34H35.0781V25.5469H36.5234V34ZM34.9609 23.3047C34.9609 23.0703 35.0312 22.8724 35.1719 22.7109C35.3177 22.5495 35.5312 22.4688 35.8125 22.4688C36.0938 22.4688 36.3073 22.5495 36.4531 22.7109C36.599 22.8724 36.6719 23.0703 36.6719 23.3047C36.6719 23.5391 36.599 23.7344 36.4531 23.8906C36.3073 24.0469 36.0938 24.125 35.8125 24.125C35.5312 24.125 35.3177 24.0469 35.1719 23.8906C35.0312 23.7344 34.9609 23.5391 34.9609 23.3047Z" fill="#6C6C80"/>
</svg>
