<svg width="192" height="184" viewBox="0 0 192 184" fill="none" xmlns="http://www.w3.org/2000/svg">
<rect x="1" y="1" width="190" height="182" rx="3.30811" fill="url(#paint0_linear)" stroke="#34CB79" stroke-width="2"/>
<path d="M61.3203 143.773H66.7109V145H59.8125V133.625H61.3203V143.773ZM73.4141 145C73.3307 144.833 73.263 144.536 73.2109 144.109C72.5391 144.807 71.737 145.156 70.8047 145.156C69.9714 145.156 69.2865 144.922 68.75 144.453C68.2188 143.979 67.9531 143.38 67.9531 142.656C67.9531 141.776 68.2865 141.094 68.9531 140.609C69.625 140.12 70.5677 139.875 71.7812 139.875H73.1875V139.211C73.1875 138.706 73.0365 138.305 72.7344 138.008C72.4323 137.706 71.987 137.555 71.3984 137.555C70.8828 137.555 70.4505 137.685 70.1016 137.945C69.7526 138.206 69.5781 138.521 69.5781 138.891H68.125C68.125 138.469 68.2734 138.062 68.5703 137.672C68.8724 137.276 69.2786 136.964 69.7891 136.734C70.3047 136.505 70.8698 136.391 71.4844 136.391C72.4583 136.391 73.2214 136.635 73.7734 137.125C74.3255 137.609 74.612 138.279 74.6328 139.133V143.023C74.6328 143.799 74.7318 144.417 74.9297 144.875V145H73.4141ZM71.0156 143.898C71.4688 143.898 71.8984 143.781 72.3047 143.547C72.7109 143.312 73.0052 143.008 73.1875 142.633V140.898H72.0547C70.2839 140.898 69.3984 141.417 69.3984 142.453C69.3984 142.906 69.5495 143.26 69.8516 143.516C70.1536 143.771 70.5417 143.898 71.0156 143.898ZM74.0078 135.141V135.219H72.8125L71.6406 133.891L70.4766 135.219H69.2812V135.125L71.2031 133H72.0781L74.0078 135.141ZM78.2578 136.547L78.2969 137.484C78.9167 136.755 79.7526 136.391 80.8047 136.391C81.987 136.391 82.7917 136.844 83.2188 137.75C83.5 137.344 83.8646 137.016 84.3125 136.766C84.7656 136.516 85.2995 136.391 85.9141 136.391C87.7682 136.391 88.7109 137.372 88.7422 139.336V145H87.2969V139.422C87.2969 138.818 87.1589 138.367 86.8828 138.07C86.6068 137.768 86.1432 137.617 85.4922 137.617C84.9557 137.617 84.5104 137.779 84.1562 138.102C83.8021 138.419 83.5964 138.849 83.5391 139.391V145H82.0859V139.461C82.0859 138.232 81.4844 137.617 80.2812 137.617C79.3333 137.617 78.6849 138.021 78.3359 138.828V145H76.8906V136.547H78.2578ZM98.0703 140.867C98.0703 142.154 97.776 143.19 97.1875 143.977C96.599 144.763 95.8021 145.156 94.7969 145.156C93.7708 145.156 92.9635 144.831 92.375 144.18V148.25H90.9297V136.547H92.25L92.3203 137.484C92.9089 136.755 93.7266 136.391 94.7734 136.391C95.7891 136.391 96.5911 136.773 97.1797 137.539C97.7734 138.305 98.0703 139.37 98.0703 140.734V140.867ZM96.625 140.703C96.625 139.75 96.4219 138.997 96.0156 138.445C95.6094 137.893 95.0521 137.617 94.3438 137.617C93.4688 137.617 92.8125 138.005 92.375 138.781V142.82C92.8073 143.591 93.4688 143.977 94.3594 143.977C95.0521 143.977 95.6016 143.703 96.0078 143.156C96.4193 142.604 96.625 141.786 96.625 140.703ZM105.133 145C105.049 144.833 104.982 144.536 104.93 144.109C104.258 144.807 103.456 145.156 102.523 145.156C101.69 145.156 101.005 144.922 100.469 144.453C99.9375 143.979 99.6719 143.38 99.6719 142.656C99.6719 141.776 100.005 141.094 100.672 140.609C101.344 140.12 102.286 139.875 103.5 139.875H104.906V139.211C104.906 138.706 104.755 138.305 104.453 138.008C104.151 137.706 103.706 137.555 103.117 137.555C102.602 137.555 102.169 137.685 101.82 137.945C101.471 138.206 101.297 138.521 101.297 138.891H99.8438C99.8438 138.469 99.9922 138.062 100.289 137.672C100.591 137.276 100.997 136.964 101.508 136.734C102.023 136.505 102.589 136.391 103.203 136.391C104.177 136.391 104.94 136.635 105.492 137.125C106.044 137.609 106.331 138.279 106.352 139.133V143.023C106.352 143.799 106.451 144.417 106.648 144.875V145H105.133ZM102.734 143.898C103.188 143.898 103.617 143.781 104.023 143.547C104.43 143.312 104.724 143.008 104.906 142.633V140.898H103.773C102.003 140.898 101.117 141.417 101.117 142.453C101.117 142.906 101.268 143.26 101.57 143.516C101.872 143.771 102.26 143.898 102.734 143.898ZM108.266 140.703C108.266 139.406 108.573 138.365 109.188 137.578C109.802 136.786 110.607 136.391 111.602 136.391C112.591 136.391 113.375 136.729 113.953 137.406V133H115.398V145H114.07L114 144.094C113.422 144.802 112.617 145.156 111.586 145.156C110.607 145.156 109.807 144.755 109.188 143.953C108.573 143.151 108.266 142.104 108.266 140.812V140.703ZM109.711 140.867C109.711 141.826 109.909 142.576 110.305 143.117C110.701 143.659 111.247 143.93 111.945 143.93C112.862 143.93 113.531 143.518 113.953 142.695V138.812C113.521 138.016 112.857 137.617 111.961 137.617C111.253 137.617 110.701 137.891 110.305 138.438C109.909 138.984 109.711 139.794 109.711 140.867ZM122.867 145C122.784 144.833 122.716 144.536 122.664 144.109C121.992 144.807 121.19 145.156 120.258 145.156C119.424 145.156 118.74 144.922 118.203 144.453C117.672 143.979 117.406 143.38 117.406 142.656C117.406 141.776 117.74 141.094 118.406 140.609C119.078 140.12 120.021 139.875 121.234 139.875H122.641V139.211C122.641 138.706 122.49 138.305 122.188 138.008C121.885 137.706 121.44 137.555 120.852 137.555C120.336 137.555 119.904 137.685 119.555 137.945C119.206 138.206 119.031 138.521 119.031 138.891H117.578C117.578 138.469 117.727 138.062 118.023 137.672C118.326 137.276 118.732 136.964 119.242 136.734C119.758 136.505 120.323 136.391 120.938 136.391C121.911 136.391 122.674 136.635 123.227 137.125C123.779 137.609 124.065 138.279 124.086 139.133V143.023C124.086 143.799 124.185 144.417 124.383 144.875V145H122.867ZM120.469 143.898C120.922 143.898 121.352 143.781 121.758 143.547C122.164 143.312 122.458 143.008 122.641 142.633V140.898H121.508C119.737 140.898 118.852 141.417 118.852 142.453C118.852 142.906 119.003 143.26 119.305 143.516C119.607 143.771 119.995 143.898 120.469 143.898ZM131.273 142.758C131.273 142.367 131.125 142.065 130.828 141.852C130.536 141.633 130.023 141.445 129.289 141.289C128.56 141.133 127.979 140.945 127.547 140.727C127.12 140.508 126.802 140.247 126.594 139.945C126.391 139.643 126.289 139.284 126.289 138.867C126.289 138.174 126.581 137.589 127.164 137.109C127.753 136.63 128.503 136.391 129.414 136.391C130.372 136.391 131.148 136.638 131.742 137.133C132.341 137.628 132.641 138.26 132.641 139.031H131.188C131.188 138.635 131.018 138.294 130.68 138.008C130.346 137.721 129.924 137.578 129.414 137.578C128.888 137.578 128.477 137.693 128.18 137.922C127.883 138.151 127.734 138.451 127.734 138.82C127.734 139.169 127.872 139.432 128.148 139.609C128.424 139.786 128.922 139.956 129.641 140.117C130.365 140.279 130.951 140.471 131.398 140.695C131.846 140.919 132.177 141.19 132.391 141.508C132.609 141.82 132.719 142.203 132.719 142.656C132.719 143.411 132.417 144.018 131.812 144.477C131.208 144.93 130.424 145.156 129.461 145.156C128.784 145.156 128.185 145.036 127.664 144.797C127.143 144.557 126.734 144.224 126.438 143.797C126.146 143.365 126 142.898 126 142.398H127.445C127.471 142.883 127.664 143.268 128.023 143.555C128.388 143.836 128.867 143.977 129.461 143.977C130.008 143.977 130.445 143.867 130.773 143.648C131.107 143.424 131.273 143.128 131.273 142.758Z" fill="#322153"/>
<g clip-path="url(#clip0)">
<path d="M75.0001 60.0001H84.0001V70.0001H75.0001V60.0001Z" stroke="#322153" stroke-width="2"/>
<path d="M102 46.0001C101.611 47.5888 98 49.3224 98 51.1429V58.0001H127V51.1429C127 49.3224 122.889 47.5888 122.5 46.0001H102Z" fill="#34CB79"/>
<path d="M65.0323 70.1936V75.3549C65.0323 76.0721 64.5001 80.5002 72 83.0002L72.5 86.5002H79H86.5001C86.5001 81.5002 92.0001 81.5002 93.5001 77.5002L93.9355 70.1936H65.0323Z" fill="#34CB79"/>
<path d="M120.274 44.6265V45.0253L120.663 45.114C124.573 46.006 127.5 49.5051 127.5 53.6774V58.3387H119.742H119.242V58.8387V88.7742C119.242 92.4824 116.223 95.5 112.516 95.5C108.809 95.5 105.79 92.4824 105.79 88.7742V58.8387V58.3387H105.29H97.5323V53.6774C97.5323 49.5051 100.46 46.006 104.369 45.114L104.758 45.0253V44.6265V39.2258C104.758 38.1041 105.481 37.1501 106.491 36.79L106.823 36.6716V36.3191V35.0968C106.823 33.6658 107.988 32.5 109.419 32.5H115.613C117.044 32.5 118.21 33.6658 118.21 35.0968V36.3191V36.6716L118.542 36.79C119.551 37.1501 120.274 38.1041 120.274 39.2258V44.6265ZM116.645 36.629H117.145V36.129V35.0968C117.145 34.2524 116.459 33.5645 115.613 33.5645H109.419C108.573 33.5645 107.887 34.2524 107.887 35.0968V36.129V36.629H108.387H116.645ZM118.71 44.8871H119.21V44.3871V39.2258C119.21 38.3814 118.523 37.6935 117.677 37.6935H107.355C106.509 37.6935 105.823 38.3814 105.823 39.2258V44.3871V44.8871H106.323H118.71ZM107.355 58.3387H106.855V58.8387V88.7742C106.855 91.8961 109.394 94.4355 112.516 94.4355C115.638 94.4355 118.177 91.8961 118.177 88.7742V58.8387V58.3387H117.677H115.613H115.113V58.8387V88.7742C115.113 90.2052 113.947 91.371 112.516 91.371C111.085 91.371 109.919 90.2052 109.919 88.7742V58.8387V58.3387H109.419H107.355ZM111.484 58.3387H110.984V58.8387V88.7742C110.984 89.6186 111.67 90.3064 112.516 90.3064C113.362 90.3064 114.048 89.6186 114.048 88.7742V58.8387V58.3387H113.548H111.484ZM98.5968 56.7742V57.2742H99.0968H125.935H126.435V56.7742V54.7097V52.6452V52.1452H126.274C125.56 48.6178 122.446 45.9516 118.71 45.9516H106.323C102.587 45.9516 99.4718 48.6178 98.7587 52.1452H98.5968V52.6452V54.7097V56.7742Z" fill="#322153" stroke="#322153"/>
<path d="M71.7258 83.5489V83.1077L71.288 83.0528C67.4676 82.5736 64.5 79.3024 64.5 75.3548V69.6613H94.4677V75.3548C94.4677 79.3024 91.5001 82.5736 87.6797 83.0528L87.2419 83.1077V83.5489V88.7742C87.2419 89.8959 86.5191 90.8499 85.5095 91.21L85.1774 91.3284V91.6809V92.9032C85.1774 94.3342 84.0117 95.5 82.5806 95.5H76.3871C74.9561 95.5 73.7903 94.3342 73.7903 92.9032V91.6809V91.3284L73.4583 91.21C72.4486 90.8499 71.7258 89.8959 71.7258 88.7742V83.5489ZM75.3548 91.371H74.8548V91.871V92.9032C74.8548 93.7476 75.5411 94.4355 76.3871 94.4355H82.5806C83.4267 94.4355 84.1129 93.7476 84.1129 92.9032V91.871V91.371H83.6129H75.3548ZM73.2903 87.2419H72.7903V87.7419V88.7742C72.7903 89.6186 73.4766 90.3064 74.3226 90.3064H84.6452C85.4912 90.3064 86.1774 89.6186 86.1774 88.7742V87.7419V87.2419H85.6774H73.2903ZM93.4032 71.2258V70.7258H92.9032H66.0645H65.5645V71.2258V73.2903V75.3548C65.5645 79.0468 68.5661 82.0484 72.2581 82.0484H72.7903V85.6774V86.1774H73.2903H85.6774H86.1774V85.6774V82.0484H86.7097C90.4016 82.0484 93.4032 79.0468 93.4032 75.3548V73.2903V71.2258Z" fill="#322153" stroke="#322153"/>
<path d="M91.7795 46.417L91.4141 46.9547L92.0275 47.1699C93.4481 47.6683 94.4677 49.0035 94.4677 50.5806C94.4677 52.1577 93.4481 53.493 92.0275 53.9914L91.4141 54.2066L91.7795 54.7443C92.1732 55.3234 92.4032 56.0219 92.4032 56.7742C92.4032 58.7753 90.7753 60.4032 88.7742 60.4032H70.1935C68.1925 60.4032 66.5645 58.7753 66.5645 56.7742C66.5645 56.0219 66.7946 55.3234 67.1882 54.7443L67.5536 54.2066L66.9402 53.9914C65.5196 53.493 64.5 52.1577 64.5 50.5806C64.5 49.0035 65.5196 47.6683 66.9402 47.1699L67.5536 46.9547L67.1882 46.417C66.7946 45.8378 66.5645 45.1394 66.5645 44.3871C66.5645 42.81 67.5842 41.4748 69.0048 40.9763L69.6182 40.7611L69.2527 40.2235C68.8591 39.6443 68.629 38.9458 68.629 38.1935C68.629 36.1925 70.257 34.5645 72.2581 34.5645H82.5806C84.5817 34.5645 86.2097 36.1925 86.2097 38.1935C86.2097 38.8502 86.02 39.4633 85.7036 40.0063L85.2656 40.7581H86.1356H88.7742C90.7753 40.7581 92.4032 42.386 92.4032 44.3871C92.4032 45.1394 92.1732 45.8378 91.7795 46.417ZM82.5806 35.629H72.2581C70.8433 35.629 69.6935 36.7788 69.6935 38.1935C69.6935 39.6083 70.8433 40.7581 72.2581 40.7581H82.5806C83.9954 40.7581 85.1452 39.6083 85.1452 38.1935C85.1452 36.7788 83.9954 35.629 82.5806 35.629ZM88.7742 41.8226H70.1935C68.7788 41.8226 67.629 42.9723 67.629 44.3871C67.629 45.8018 68.7788 46.9516 70.1935 46.9516H88.7742C90.1889 46.9516 91.3387 45.8018 91.3387 44.3871C91.3387 42.9723 90.1889 41.8226 88.7742 41.8226ZM70.1935 59.3387H88.7742C90.1889 59.3387 91.3387 58.1889 91.3387 56.7742C91.3387 55.3594 90.1889 54.2097 88.7742 54.2097H70.1935C68.7788 54.2097 67.629 55.3594 67.629 56.7742C67.629 58.1889 68.7788 59.3387 70.1935 59.3387ZM68.129 53.1452H90.8387C92.2535 53.1452 93.4032 51.9954 93.4032 50.5806C93.4032 49.1659 92.2535 48.0161 90.8387 48.0161H68.129C66.7143 48.0161 65.5645 49.1659 65.5645 50.5806C65.5645 51.9954 66.7143 53.1452 68.129 53.1452Z" fill="#322153" stroke="#322153"/>
</g>
<defs>
<linearGradient id="paint0_linear" x1="60" y1="184" x2="60" y2="0" gradientUnits="userSpaceOnUse">
<stop stop-color="#E1FAEC"/>
<stop offset="1" stop-color="white"/>
</linearGradient>
<clipPath id="clip0">
<rect width="64" height="64" fill="white" transform="translate(64 32)"/>
</clipPath>
</defs>
</svg>
